HIERARCHY
ROOT Hips
{
	OFFSET 0.000000 88.474243 0.000000
	CHANNELS 6 Xposition Yposition Zposition Zrotation Yrotation Xrotation 
	JOINT Hips_Spine
	{
		OFFSET 0.000000 0.000000 0.000000
		CHANNELS 3 Zrotation Yrotation Xrotation
		JOINT Spine
		{
			OFFSET 0.005100 8.711998 -0.691000
			CHANNELS 3 Zrotation Yrotation Xrotation
			JOINT Spine1
			{
				OFFSET -0.009200 8.660301 -1.275000
				CHANNELS 3 Zrotation Yrotation Xrotation
				JOINT Spine2
				{
					OFFSET 0.006300 9.852501 -1.857000
					CHANNELS 3 Zrotation Yrotation Xrotation
					JOINT Spine2_Neck
					{
						OFFSET 0.000000 0.000000 0.000000
						CHANNELS 3 Zrotation Yrotation Xrotation
						JOINT Neck
						{
							OFFSET 0.016300 11.420799 -0.263300
							CHANNELS 3 Zrotation Yrotation Xrotation
							End Site #name: Head
							{
								OFFSET -0.019200 9.262405 2.362500
							}
						}
					}
					JOINT Spine2_LeftShoulder
					{
						OFFSET 0.000000 0.000000 0.000000
						CHANNELS 3 Zrotation Yrotation Xrotation
						JOINT LeftShoulder
						{
							OFFSET 5.616900 6.732201 -0.345700
							CHANNELS 3 Zrotation Yrotation Xrotation
							JOINT LeftArm
							{
								OFFSET 10.664888 -0.183372 -2.440700
								CHANNELS 3 Zrotation Yrotation Xrotation
								JOINT LeftForeArm
								{
									OFFSET 27.459126 0.000000 0.000000
									CHANNELS 3 Zrotation Yrotation Xrotation
									End Site #name: LeftHand
									{
										OFFSET 21.306858 0.000000 0.000000
									}
								}
							}
						}
					}
					JOINT Spine2_RightShoulder
					{
						OFFSET 0.000000 0.000000 0.000000
						CHANNELS 3 Zrotation Yrotation Xrotation
						JOINT RightShoulder
						{
							OFFSET -5.580300 6.737503 -0.344400
							CHANNELS 3 Zrotation Yrotation Xrotation
							JOINT RightArm
							{
								OFFSET -10.679335 -0.188484 -2.383900
								CHANNELS 3 Zrotation Yrotation Xrotation
								JOINT RightForeArm
								{
									OFFSET -27.503529 0.000000 0.000000
									CHANNELS 3 Zrotation Yrotation Xrotation
									End Site #name: RightHand
									{
										OFFSET -21.306808 0.000000 0.000000
									}
								}
							}
						}
					}
				}
			}
		}
	}
	JOINT Hips_LeftUpLeg
	{
		OFFSET 0.000000 0.000000 0.000000
		CHANNELS 3 Zrotation Yrotation Xrotation
		JOINT LeftUpLeg
		{
			OFFSET 6.857700 -6.739601 0.312100
			CHANNELS 3 Zrotation Yrotation Xrotation
			JOINT LeftLeg
			{
				OFFSET -0.367590 -34.731552 -4.572400
				CHANNELS 3 Zrotation Yrotation Xrotation
				End Site #name: LeftFoot
				{
					OFFSET 0.367590 -34.656704 -6.067400
				}
			}
		}
	}
	JOINT Hips_RightUpLeg
	{
		OFFSET 0.000000 0.000000 0.000000
		CHANNELS 3 Zrotation Yrotation Xrotation
		JOINT RightUpLeg
		{
			OFFSET -6.876100 -6.733299 0.301000
			CHANNELS 3 Zrotation Yrotation Xrotation
			JOINT RightLeg
			{
				OFFSET 0.347353 -34.795158 -4.515900
				CHANNELS 3 Zrotation Yrotation Xrotation
				End Site #name: RightFoot
				{
					OFFSET -0.347353 -34.589367 -6.070300
				}
			}
		}
	}
}
MOTION
Frames: 12
Frame Time: 0.041667
-0.086978 0.059454 0.028489 -4.159306 -0.474496 -1.580148 -0.000000 0.000000 0.000000 -0.772359 0.918247 5.457476 -1.754286 1.310280 9.798733 0.000000 0.000000 0.000000 -1.977016 1.407817 9.134960 -1.427174 -3.752881 4.513658 -2.020575 1.224365 10.103279 -0.780642 -0.545548 0.274394 -68.861522 -24.236288 21.952768 172.948902 -85.131696 -173.047714 -1.817003 1.619857 10.606780 -4.522062 -0.642636 1.324448 77.029050 -5.813244 6.561983 175.360437 83.287755 177.135246 0.000000 -0.000000 0.000000 7.204302 1.289453 -19.788215 -1.454357 0.460829 35.425650 -0.000000 0.000000 -0.000000 -3.772813 -2.671936 -16.099823 -0.374361 -2.131509 27.055114 
0.018932 0.073390 0.125399 -5.239123 -4.364133 -1.386824 -0.000000 0.000000 0.000000 -0.847648 0.494667 5.151340 -2.103535 1.468821 10.037103 0.000000 0.000000 0.000000 -1.889905 1.434428 10.046058 -2.007746 -4.017525 5.510163 -2.033107 1.528375 10.593592 0.894636 0.856295 -0.168674 -69.042635 -23.379151 31.274096 178.005586 -83.691159 -177.870276 -1.919274 1.218004 10.099293 -5.431032 -2.339261 0.728129 82.202131 -7.107057 8.169845 -170.245093 86.050485 -170.493110 0.000000 -0.000000 0.000000 7.206662 0.163111 -23.390594 -1.020545 0.668684 33.456582 -0.000000 0.000000 -0.000000 -2.983194 -3.785692 -16.438441 0.896362 -0.514863 26.277113 
0.136586 0.059298 0.114712 -4.692054 -5.718529 -2.589526 0.000000 -0.000000 -0.000000 -0.748331 0.508257 5.160426 -2.119307 1.403032 10.003476 0.000000 0.000000 0.000000 -2.156009 1.594922 10.844385 -1.823603 -3.599070 4.872214 -1.827159 1.538010 10.404891 1.294813 0.737352 -0.162157 -70.584698 -18.358574 31.725210 -176.270586 -82.522228 176.300833 -1.971908 1.362380 10.067488 -3.967463 -2.382790 0.701739 81.406574 -7.544618 9.419042 -167.372456 86.762835 -167.628415 0.000000 -0.000000 0.000000 7.272288 0.852615 -23.005745 -1.150601 0.313541 34.265187 -0.000000 0.000000 -0.000000 -2.684150 -3.494901 -16.262628 0.528873 -0.943157 25.129841 
0.224409 0.028980 0.091514 -4.236448 -6.280859 -3.113937 -0.000000 -0.000000 -0.000000 -0.636560 0.534843 5.135707 -2.043736 1.525763 10.035038 0.000000 0.000000 0.000000 -1.995904 1.650573 10.420867 -1.624405 -3.789008 5.263395 -1.853999 1.569393 10.169760 1.939600 0.404730 0.035875 -70.900116 -18.265563 31.873410 -175.262893 -83.033610 175.283608 -1.985275 1.495631 9.990631 -3.662088 -1.826474 0.948783 80.679290 -7.057036 9.155768 -169.957111 85.608308 -170.381201 0.000000 0.000000 0.000000 7.059575 1.292399 -23.174184 -1.427979 0.210630 34.915488 -0.000000 0.000000 0.000000 -2.363495 -3.158377 -16.444434 0.286900 -0.824089 25.496052 
0.292981 0.035861 0.127718 -4.352215 -5.914613 -2.864992 -0.000000 -0.000000 0.000000 -0.532386 0.689282 5.353912 -1.973766 1.520651 9.872720 0.000000 0.000000 0.000000 -1.896985 1.631054 9.945781 -1.382799 -3.932706 5.279590 -1.908215 1.548187 9.892046 2.057636 0.467790 0.150020 -70.971701 -18.993940 31.630238 -175.025768 -84.032735 175.187280 -1.996551 1.568424 9.938125 -3.894855 -2.307350 1.118236 80.453225 -7.779324 8.383028 -168.359456 85.441822 -168.819645 0.000000 0.000000 0.000000 6.672020 1.332690 -22.904930 -1.408848 0.322752 35.062581 -0.000000 0.000000 0.000000 -2.440127 -3.141912 -16.684483 0.404059 -0.678587 25.871847 
0.375804 0.060488 0.194035 -4.496743 -5.612000 -2.643746 -0.000000 -0.000000 0.000000 -0.530279 0.783169 5.345567 -1.900635 1.496348 9.717786 0.000000 0.000000 0.000000 -1.854653 1.566118 9.745894 -1.209950 -3.819307 5.103127 -1.918187 1.494756 9.619022 1.858123 0.474423 0.164687 -71.263226 -19.444671 30.905722 -175.102060 -84.610704 175.200179 -1.975802 1.568128 9.864188 -4.265770 -2.561263 1.132659 80.517037 -8.514174 7.833539 -169.210166 85.005432 -169.625078 0.000000 0.000000 0.000000 6.495149 1.429828 -22.648835 -1.461236 0.411071 34.945463 -0.000000 -0.000000 0.000000 -2.771340 -3.182916 -16.465840 0.407649 -0.736173 25.614629 
0.477115 0.092162 0.258835 -4.607690 -5.612818 -2.421009 -0.000000 -0.000000 0.000000 -0.556190 0.793812 5.185990 -1.871510 1.493979 9.740491 0.000000 0.000000 0.000000 -1.880233 1.518617 9.740932 -1.001142 -3.653728 5.013037 -1.913496 1.460922 9.461409 1.641173 0.374511 0.148941 -71.041181 -19.823276 30.043819 -176.905605 -83.819292 176.946398 -1.919089 1.531245 9.755031 -4.507451 -2.405946 1.090868 80.639605 -8.718103 7.783726 -170.800873 84.821771 -171.104339 0.000000 0.000000 0.000000 6.404191 1.469815 -22.244936 -1.463358 0.428802 34.582585 -0.000000 -0.000000 0.000000 -3.236665 -3.127601 -16.154152 0.380043 -0.891054 25.019635 
0.588170 0.122116 0.316503 -4.674250 -5.806901 -2.245895 -0.000000 -0.000000 0.000000 -0.579463 0.780680 5.164211 -1.838027 1.491018 9.790032 0.000000 0.000000 0.000000 -1.884290 1.488261 9.762156 -0.720765 -3.461638 4.935935 -1.884761 1.451252 9.411668 1.623134 0.204967 0.172725 -70.884150 -20.184961 29.371949 -177.991308 -83.247643 177.976976 -1.843430 1.496584 9.687172 -4.517177 -2.205593 1.081244 80.573947 -8.596932 7.794496 -171.914627 84.768181 -172.121915 0.000000 0.000000 0.000000 6.318825 1.481400 -22.069658 -1.421571 0.410378 34.457228 -0.000000 -0.000000 0.000000 -3.577667 -3.015848 -15.992370 0.344986 -0.958017 24.571555 
0.706643 0.145577 0.369131 -4.717362 -6.090598 -2.108693 -0.000000 0.000000 0.000000 -0.581626 0.755392 5.200011 -1.793783 1.493389 9.812055 0.000000 0.000000 0.000000 -1.853459 1.476801 9.759312 -0.411200 -3.140031 4.740482 -1.835745 1.454883 9.453420 1.735653 0.127770 0.237220 -71.083939 -19.943819 29.207806 -178.316740 -83.292766 178.264025 -1.746994 1.459432 9.663938 -4.393992 -2.150691 1.083056 80.361116 -8.306075 7.767205 -172.709665 85.011060 -172.819527 0.000000 0.000000 0.000000 6.265934 1.466276 -22.017552 -1.396975 0.373778 34.417682 -0.000000 -0.000000 -0.000000 -3.698605 -2.851867 -16.045531 0.306091 -0.950533 24.332490 
0.829687 0.161056 0.413715 -4.682740 -6.343703 -2.028878 -0.000000 0.000000 0.000000 -0.571108 0.735451 5.291219 -1.743367 1.499536 9.812218 0.000000 0.000000 0.000000 -1.808142 1.481702 9.749026 -0.018107 -2.482855 4.394846 -1.781764 1.460486 9.497628 1.904383 0.135808 0.288230 -71.427828 -19.550245 29.402199 -178.316979 -83.723172 178.241886 -1.667334 1.433404 9.651680 -4.280119 -2.065244 1.119837 80.056535 -8.150318 7.811211 -173.202105 85.223831 -173.281532 0.000000 0.000000 0.000000 6.206125 1.464352 -21.993217 -1.393836 0.334004 34.404455 -0.000000 -0.000000 -0.000000 -3.703930 -2.681519 -16.205947 0.278232 -0.911643 24.192480 
0.953003 0.172161 0.454335 -4.573800 -6.588524 -2.044331 -0.000000 0.000000 0.000000 -0.546297 0.715751 5.343776 -1.672540 1.496384 9.766206 0.000000 0.000000 0.000000 -1.735839 1.488189 9.722903 0.378185 -1.809170 4.084302 -1.716650 1.460702 9.520668 2.158901 0.182382 0.333792 -71.967779 -19.196250 29.645461 -178.184881 -84.206110 178.083231 -1.613862 1.414922 9.632870 -4.241321 -2.061830 1.142263 79.848834 -8.083755 7.794588 -173.683705 85.305686 -173.771740 0.000000 0.000000 0.000000 6.150877 1.477676 -21.980718 -1.397192 0.312561 34.314880 -0.000000 -0.000000 -0.000000 -3.653752 -2.536910 -16.347119 0.242871 -0.882324 24.044732 
1.076129 0.181922 0.492873 -4.549293 -6.770537 -2.059741 -0.000000 0.000000 0.000000 -0.518223 0.697986 5.344388 -1.594179 1.487158 9.700243 0.000000 0.000000 0.000000 -1.647660 1.492038 9.677625 0.775002 -1.227732 3.845310 -1.646611 1.454829 9.516917 2.430940 0.287729 0.375241 -72.535460 -18.915629 29.924639 -178.086637 -84.472560 177.973420 -1.564680 1.402807 9.589631 -4.248981 -2.067699 1.145733 79.730072 -8.178856 7.747393 -174.129629 85.340370 -174.237966 0.000000 0.000000 0.000000 6.084324 1.474795 -21.955936 -1.397819 0.301434 34.182383 -0.000000 -0.000000 -0.000000 -3.572280 -2.416930 -16.415742 0.212592 -0.876063 23.838305 
